<svg id="Capa_1" data-name="Capa 1" xmlns="http://www.w3.org/2000/svg" viewBox="0 0 504 127.21"><defs><style>.cls-1{fill:#1d1d1b;}.cls-2{fill:#e5e5e5;}.cls-3{fill:#fff;}</style></defs><title>logo</title><path d="M141.6,73.61c-11.08.25-16.44.87-21.54,2.49-4.49,1.5-7.23,4.61-7.23,8.22,0,4.48,3.74,7.1,10.21,7.1,5.11,0,10.71-1.87,14.07-4.73a12.56,12.56,0,0,0,4.49-9.59Zm0-18.8c0-6-3.61-8.72-11.83-8.72-8,0-12.2,2.62-14.07,8.72L91.91,51c2.49-7.35,5.23-11.34,10.46-15.07,6.73-4.73,15.94-7.1,28-7.1,9.22,0,18.18,1.75,23,4.36,8,4.36,11.45,11.21,11.45,22.42V89.18a142.6,142.6,0,0,0,.88,17.68H141.6v-5.73c-7,5.36-13.95,7.47-24.16,7.47-9.46,0-16.56-2.24-21.54-6.85-4.48-4.11-6.85-10.08-6.85-16.93,0-7.85,3.11-14.07,9.09-18.18,6.35-4.49,14.69-7.1,25.9-8.1,4.85-.49,8.59-.62,17.56-.87Z" transform="translate(-5 -4.36)"/><path d="M228.27,85.86c3.49-3.36,5.48-9.09,5.48-16.19,0-12.7-6.73-20-18.43-20-10.34,0-18.81,9.09-18.81,20.42,0,11.7,8.35,20.54,19.56,20.54a17.2,17.2,0,0,0,12.2-4.73m-56.53,45.7a160.56,160.56,0,0,0,1-18.18V52.61a153.94,153.94,0,0,0-1-19.55h24.52V37.3c0,.74-.12,1.74-.12,2.36,7.47-6.22,15.19-8.84,25.53-8.84,11,0,19.92,3.24,26.4,9.59,6.6,6.6,10,16.44,10,29s-3.74,23-10.83,30.14c-6.36,6.35-15.44,9.84-25.66,9.84a45,45,0,0,1-16.81-3.24c-3.23-1.37-5.1-2.74-8.59-5.73,0,1.12,0,2.74.12,4.48v8.59a129.58,129.58,0,0,0,1,18.06Z" transform="translate(-5 -4.36)"/><path d="M339.42,31.11a140.66,140.66,0,0,0-1.15,18.67L338,88.25c-.07,8.59.13,13.7.83,18.69L314,106.73l0-5.35c0-.63,0-2.49.15-3.36-8.28,7.65-15.4,10.57-26,10.49-8.34-.07-15-2.5-19.74-7.15-4.94-5-7-11.13-6.92-21l.26-31.26A157.15,157.15,0,0,0,261,30.45l25.9.21a141.68,141.68,0,0,0-1.16,18.68l-.21,25.52c0,5.11.44,7.35,1.91,9.36,1.73,2.25,4.46,3.52,8.07,3.55,6.85.06,13.86-4.74,18.78-12.67l.22-25.52a151.28,151.28,0,0,0-.84-18.69Z" transform="translate(-5 -4.36)"/><path d="M430.8,57.42c-1.75-8-7.1-12.2-15.69-12.2-8.84,0-14.2,4-16.32,12.2ZM398.42,74.61c1.24,10.08,7.1,15.44,16.93,15.44a18.15,18.15,0,0,0,12.58-4.61c1.87-1.74,2.74-3.11,3.74-6.35l21.67,6.1c-2.87,6.48-4.73,9.34-8.22,12.83-7.1,7-17.06,10.58-29.39,10.58S393.94,105.11,386.84,98c-7.35-7.47-11.33-18.06-11.33-30.39,0-24.65,15.81-41,39.6-41,19.42,0,33,10.58,37.35,29.13,1,4,1.5,9.22,1.87,16.32a21.78,21.78,0,0,0,.13,2.49Z" transform="translate(-5 -4.36)"/><path d="M467,27.91a128.26,128.26,0,0,0-1-17.06h25.4a145.49,145.49,0,0,0-1,17.06v2.62h4.48a84.73,84.73,0,0,0,12.2-.63V50.57a81.63,81.63,0,0,0-11.46-.74h-5.22V81.71c0,3.49.62,5.22,2.24,6.35a10.82,10.82,0,0,0,5.72,1.37,17.16,17.16,0,0,0,8.72-2.24L509,106.11a53.38,53.38,0,0,1-17.19,2.49c-8.46,0-14.32-1.37-18.3-4.35-4.73-3.61-6.48-7.85-6.48-16.32V49.83H462.3a76.46,76.46,0,0,0-10.83.74V29.78a74.74,74.74,0,0,0,11.08.75H467Z" transform="translate(-5 -4.36)"/><path d="M373,4.36a128.35,128.35,0,0,0-1,19V89.82a150.91,150.91,0,0,0,1,19H346.63a125.66,125.66,0,0,0,1-19V23.31c0-8.92-.25-14.18-1-18.95Z" transform="translate(-5 -4.36)"/><path d="M72,35.63V29.4H85.77V57.89H72Q65.94,42.46,51.75,42.46a21.9,21.9,0,0,0-12.49,3.66,24.32,24.32,0,0,0-8.49,10,31.74,31.74,0,0,0-3,14,30.1,30.1,0,0,0,2.88,13.2,24,24,0,0,0,8,9.56,20.3,20.3,0,0,0,11.88,3.58A20.31,20.31,0,0,0,64.89,90.7a28.71,28.71,0,0,0,8.2-15.08l16,7.58q-9,28.15-40,28.16-13.32,0-23.29-5.11A36.3,36.3,0,0,1,10.37,91.74Q5,82.34,5,69.76a41.73,41.73,0,0,1,5.53-21.39A39.48,39.48,0,0,1,25.82,33.46a44.38,44.38,0,0,1,21.85-5.41q14.67,0,24.35,7.58" transform="translate(-5 -4.36)"/><path d="M194.29,70.34c0,12.68,9.42,23,21,23s21-10.28,21-23-9.42-23-21-23-21,10.28-21,23" transform="translate(-5 -4.36)"/><path class="cls-1" d="M238.34,79.11c-1.09,2-4.53,5.62-7.68,8a32.56,32.56,0,0,1-11.78,5.55l-.14,0-.14,0a32.6,32.6,0,0,1-11.79-5.55c-3.14-2.43-6.59-6-7.67-8l-.27-.5.42-.4A11.54,11.54,0,0,0,202.37,73c.95-3.63.92-11.74-2.53-15l-.44-.41.3-.51a9.19,9.19,0,0,0,1.22-5.81l-.1-1.41,1.32.68C204.9,52,213,53.3,218.74,53.3s13.83-1.35,16.6-2.76l1.32-.68-.11,1.41a9.26,9.26,0,0,0,1.22,5.81l.3.51-.43.41c-3.45,3.22-3.48,11.33-2.53,15a11.54,11.54,0,0,0,3.08,5.25l.42.4Zm.29-1.29a11,11,0,0,1-2.92-5c-.89-3.43-.87-11.41,2.37-14.44l.44-.41a.54.54,0,0,0,.1-.66l-.3-.51a8.72,8.72,0,0,1-1.15-5.51l.1-1.38v-.06a.58.58,0,0,0-.61-.56h0a.62.62,0,0,0-.31.07L235,50c-2.69,1.39-10.61,2.69-16.29,2.69s-13.61-1.3-16.3-2.69l-1.32-.67a.63.63,0,0,0-.3-.07.64.64,0,0,0-.33.08.57.57,0,0,0-.29.52l.1,1.4a8.64,8.64,0,0,1-1.14,5.51l-.3.51a.52.52,0,0,0,.1.66l.44.41c3.24,3,3.26,11,2.36,14.44a11,11,0,0,1-2.91,5l-.43.4a.52.52,0,0,0-.11.64l.27.5c1.12,2.07,4.64,5.76,7.84,8.23,3.63,2.8,9.17,5.2,12.07,5.67l.14,0h.22l.14,0c2.9-.47,8.44-2.87,12.07-5.67,3.2-2.47,6.72-6.16,7.83-8.23l.27-.5a.51.51,0,0,0-.11-.64Z" transform="translate(-5 -4.36)"/><path class="cls-2" d="M236.76,57.69a9.85,9.85,0,0,1-1.3-6.14c-2.86,1.47-10.85,2.81-16.72,2.81S204.87,53,202,51.55a9.76,9.76,0,0,1-1.29,6.14c3.82,3.58,3.58,12,2.69,15.44a12.1,12.1,0,0,1-3.24,5.53c1,1.89,4.32,5.34,7.35,7.67a31.23,31.23,0,0,0,11.22,5.31A31.11,31.11,0,0,0,230,86.33c3-2.33,6.33-5.78,7.35-7.67a12.28,12.28,0,0,1-3.24-5.53c-.88-3.39-1.12-11.86,2.7-15.44" transform="translate(-5 -4.36)"/><path class="cls-3" d="M218.74,91.64A31.23,31.23,0,0,0,230,86.33c3-2.33,6.32-5.78,7.34-7.67a12.28,12.28,0,0,1-3.24-5.53c-.88-3.39-1.13-11.86,2.7-15.44a9.85,9.85,0,0,1-1.3-6.14c-2.85,1.46-10.85,2.81-16.72,2.81" transform="translate(-5 -4.36)"/></svg>